<mxfile host="app.diagrams.net" agent="Mozilla/5.0 (Windows NT 10.0; Win64; x64) AppleWebKit/537.36 (KHTML, like Gecko) Chrome/131.0.0.0 Safari/537.36" version="24.8.6">
  <diagram name="PÃ¡gina-1" id="CXSZ_4yX-iURxPMPHK5h">
    <mxGraphModel dx="1434" dy="746" grid="1" gridSize="10" guides="1" tooltips="1" connect="1" arrows="1" fold="1" page="1" pageScale="1" pageWidth="827" pageHeight="1169" math="0" shadow="0">
      <root>
        <mxCell id="0" />
        <mxCell id="1" parent="0" />
        <mxCell id="irj82ddTTEciqD4pm7NS-3" value="" style="group" vertex="1" connectable="0" parent="1">
          <mxGeometry x="60" y="90" width="60" height="50" as="geometry" />
        </mxCell>
        <mxCell id="irj82ddTTEciqD4pm7NS-1" value="TEG" style="rounded=1;whiteSpace=wrap;html=1;fontStyle=1;fontSize=16;" vertex="1" parent="irj82ddTTEciqD4pm7NS-3">
          <mxGeometry width="60" height="40" as="geometry" />
        </mxCell>
        <mxCell id="irj82ddTTEciqD4pm7NS-2" value="+&lt;div&gt;&lt;br&gt;&lt;/div&gt;&lt;div&gt;-&lt;/div&gt;" style="text;html=1;align=center;verticalAlign=middle;whiteSpace=wrap;rounded=0;" vertex="1" parent="irj82ddTTEciqD4pm7NS-3">
          <mxGeometry y="5" width="60" height="30" as="geometry" />
        </mxCell>
        <mxCell id="irj82ddTTEciqD4pm7NS-16" value="" style="line;strokeWidth=2;direction=south;html=1;" vertex="1" parent="irj82ddTTEciqD4pm7NS-3">
          <mxGeometry x="25" y="40" width="10" height="10" as="geometry" />
        </mxCell>
        <mxCell id="irj82ddTTEciqD4pm7NS-4" value="" style="group" vertex="1" connectable="0" parent="1">
          <mxGeometry x="60" y="140" width="60" height="40" as="geometry" />
        </mxCell>
        <mxCell id="irj82ddTTEciqD4pm7NS-5" value="TEG" style="rounded=1;whiteSpace=wrap;html=1;fontStyle=1;fontSize=16;" vertex="1" parent="irj82ddTTEciqD4pm7NS-4">
          <mxGeometry width="60" height="40" as="geometry" />
        </mxCell>
        <mxCell id="irj82ddTTEciqD4pm7NS-6" value="+&lt;div&gt;&lt;br&gt;&lt;/div&gt;&lt;div&gt;-&lt;/div&gt;" style="text;html=1;align=center;verticalAlign=middle;whiteSpace=wrap;rounded=0;" vertex="1" parent="irj82ddTTEciqD4pm7NS-4">
          <mxGeometry y="5" width="60" height="30" as="geometry" />
        </mxCell>
        <mxCell id="irj82ddTTEciqD4pm7NS-7" value="" style="group" vertex="1" connectable="0" parent="1">
          <mxGeometry x="60" y="190" width="60" height="40" as="geometry" />
        </mxCell>
        <mxCell id="irj82ddTTEciqD4pm7NS-8" value="TEG" style="rounded=1;whiteSpace=wrap;html=1;fontStyle=1;fontSize=16;" vertex="1" parent="irj82ddTTEciqD4pm7NS-7">
          <mxGeometry width="60" height="40" as="geometry" />
        </mxCell>
        <mxCell id="irj82ddTTEciqD4pm7NS-9" value="+&lt;div&gt;&lt;br&gt;&lt;/div&gt;&lt;div&gt;-&lt;/div&gt;" style="text;html=1;align=center;verticalAlign=middle;whiteSpace=wrap;rounded=0;" vertex="1" parent="irj82ddTTEciqD4pm7NS-7">
          <mxGeometry y="5" width="60" height="30" as="geometry" />
        </mxCell>
        <mxCell id="irj82ddTTEciqD4pm7NS-20" value="" style="rounded=1;whiteSpace=wrap;html=1;dashed=1;dashPattern=1 1;fillColor=none;" vertex="1" parent="1">
          <mxGeometry x="40" y="70" width="100" height="260" as="geometry" />
        </mxCell>
        <mxCell id="irj82ddTTEciqD4pm7NS-10" value="" style="line;strokeWidth=2;direction=south;html=1;dashed=1;dashPattern=1 1;" vertex="1" parent="1">
          <mxGeometry x="85" y="230" width="10" height="40" as="geometry" />
        </mxCell>
        <mxCell id="irj82ddTTEciqD4pm7NS-11" value="" style="group" vertex="1" connectable="0" parent="1">
          <mxGeometry x="60" y="270" width="60" height="40" as="geometry" />
        </mxCell>
        <mxCell id="irj82ddTTEciqD4pm7NS-12" value="TEG" style="rounded=1;whiteSpace=wrap;html=1;fontStyle=1;fontSize=16;" vertex="1" parent="irj82ddTTEciqD4pm7NS-11">
          <mxGeometry width="60" height="40" as="geometry" />
        </mxCell>
        <mxCell id="irj82ddTTEciqD4pm7NS-13" value="+&lt;div&gt;&lt;br&gt;&lt;/div&gt;&lt;div&gt;-&lt;/div&gt;" style="text;html=1;align=center;verticalAlign=middle;whiteSpace=wrap;rounded=0;" vertex="1" parent="irj82ddTTEciqD4pm7NS-11">
          <mxGeometry y="5" width="60" height="30" as="geometry" />
        </mxCell>
        <mxCell id="irj82ddTTEciqD4pm7NS-14" value="" style="line;strokeWidth=2;direction=south;html=1;" vertex="1" parent="1">
          <mxGeometry x="85" y="310" width="10" height="10" as="geometry" />
        </mxCell>
        <mxCell id="irj82ddTTEciqD4pm7NS-15" value="" style="line;strokeWidth=2;direction=south;html=1;" vertex="1" parent="1">
          <mxGeometry x="85" y="80" width="10" height="10" as="geometry" />
        </mxCell>
        <mxCell id="irj82ddTTEciqD4pm7NS-17" value="" style="line;strokeWidth=2;direction=south;html=1;" vertex="1" parent="1">
          <mxGeometry x="85" y="180" width="10" height="10" as="geometry" />
        </mxCell>
        <mxCell id="irj82ddTTEciqD4pm7NS-18" value="" style="line;strokeWidth=2;html=1;" vertex="1" parent="1">
          <mxGeometry x="90" y="314" width="129" height="10" as="geometry" />
        </mxCell>
        <mxCell id="irj82ddTTEciqD4pm7NS-19" value="" style="line;strokeWidth=2;html=1;" vertex="1" parent="1">
          <mxGeometry x="90" y="76" width="80" height="10" as="geometry" />
        </mxCell>
        <mxCell id="irj82ddTTEciqD4pm7NS-217" value="" style="line;strokeWidth=2;html=1;" vertex="1" parent="1">
          <mxGeometry x="156" y="581.5" width="24" height="10" as="geometry" />
        </mxCell>
        <mxCell id="irj82ddTTEciqD4pm7NS-218" value="" style="line;strokeWidth=2;html=1;" vertex="1" parent="1">
          <mxGeometry x="256" y="581.5" width="24" height="10" as="geometry" />
        </mxCell>
        <mxCell id="irj82ddTTEciqD4pm7NS-221" value="" style="line;strokeWidth=2;direction=south;html=1;" vertex="1" parent="1">
          <mxGeometry x="60" y="417" width="10" height="170" as="geometry" />
        </mxCell>
        <mxCell id="irj82ddTTEciqD4pm7NS-222" value="" style="line;strokeWidth=2;direction=south;html=1;" vertex="1" parent="1">
          <mxGeometry x="473" y="416" width="10" height="170" as="geometry" />
        </mxCell>
        <mxCell id="irj82ddTTEciqD4pm7NS-224" value="" style="line;strokeWidth=2;html=1;" vertex="1" parent="1">
          <mxGeometry x="64" y="581.5" width="18" height="10" as="geometry" />
        </mxCell>
        <mxCell id="irj82ddTTEciqD4pm7NS-81" value="" style="line;strokeWidth=2;direction=south;html=1;" vertex="1" parent="1">
          <mxGeometry x="70" y="486.5" width="10" height="225" as="geometry" />
        </mxCell>
        <mxCell id="irj82ddTTEciqD4pm7NS-86" value="" style="line;strokeWidth=2;html=1;" vertex="1" parent="1">
          <mxGeometry x="145" y="581.5" width="14" height="10" as="geometry" />
        </mxCell>
        <mxCell id="irj82ddTTEciqD4pm7NS-87" value="" style="line;strokeWidth=2;html=1;" vertex="1" parent="1">
          <mxGeometry x="145" y="481.5" width="14" height="10" as="geometry" />
        </mxCell>
        <mxCell id="irj82ddTTEciqD4pm7NS-88" value="" style="line;strokeWidth=2;html=1;" vertex="1" parent="1">
          <mxGeometry x="145" y="531.5" width="14" height="10" as="geometry" />
        </mxCell>
        <mxCell id="irj82ddTTEciqD4pm7NS-89" value="" style="line;strokeWidth=2;html=1;" vertex="1" parent="1">
          <mxGeometry x="74" y="481.5" width="11" height="10" as="geometry" />
        </mxCell>
        <mxCell id="irj82ddTTEciqD4pm7NS-90" value="" style="line;strokeWidth=2;html=1;" vertex="1" parent="1">
          <mxGeometry x="74" y="531.5" width="11" height="10" as="geometry" />
        </mxCell>
        <mxCell id="irj82ddTTEciqD4pm7NS-91" value="" style="line;strokeWidth=2;html=1;" vertex="1" parent="1">
          <mxGeometry x="74" y="581.5" width="11" height="10" as="geometry" />
        </mxCell>
        <mxCell id="irj82ddTTEciqD4pm7NS-97" value="" style="line;strokeWidth=2;html=1;" vertex="1" parent="1">
          <mxGeometry x="145" y="616.5" width="14" height="10" as="geometry" />
        </mxCell>
        <mxCell id="irj82ddTTEciqD4pm7NS-103" value="" style="line;strokeWidth=2;html=1;" vertex="1" parent="1">
          <mxGeometry x="145" y="661.5" width="14" height="10" as="geometry" />
        </mxCell>
        <mxCell id="irj82ddTTEciqD4pm7NS-104" value="" style="line;strokeWidth=2;html=1;" vertex="1" parent="1">
          <mxGeometry x="74" y="661.5" width="11" height="10" as="geometry" />
        </mxCell>
        <mxCell id="irj82ddTTEciqD4pm7NS-108" value="" style="line;strokeWidth=2;html=1;" vertex="1" parent="1">
          <mxGeometry x="145" y="706.5" width="14" height="10" as="geometry" />
        </mxCell>
        <mxCell id="irj82ddTTEciqD4pm7NS-110" value="" style="line;strokeWidth=2;direction=south;html=1;" vertex="1" parent="1">
          <mxGeometry x="153" y="486.5" width="10" height="225" as="geometry" />
        </mxCell>
        <mxCell id="irj82ddTTEciqD4pm7NS-79" value="TEG" style="rounded=1;whiteSpace=wrap;html=1;fontStyle=1;fontSize=16;fillColor=#ffe6cc;strokeColor=#d79b00;" vertex="1" parent="1">
          <mxGeometry x="85" y="466.5" width="60" height="40" as="geometry" />
        </mxCell>
        <mxCell id="irj82ddTTEciqD4pm7NS-80" value="+&amp;nbsp; &amp;nbsp; &amp;nbsp; &amp;nbsp; &amp;nbsp; &amp;nbsp; -" style="text;html=1;align=center;verticalAlign=middle;whiteSpace=wrap;rounded=0;fillColor=none;strokeColor=none;" vertex="1" parent="1">
          <mxGeometry x="85" y="471.5" width="60" height="30" as="geometry" />
        </mxCell>
        <mxCell id="irj82ddTTEciqD4pm7NS-64" value="TEG" style="rounded=1;whiteSpace=wrap;html=1;fontStyle=1;fontSize=16;fillColor=#ffe6cc;strokeColor=#d79b00;" vertex="1" parent="1">
          <mxGeometry x="85" y="511.5" width="60" height="40" as="geometry" />
        </mxCell>
        <mxCell id="irj82ddTTEciqD4pm7NS-65" value="+&amp;nbsp; &amp;nbsp; &amp;nbsp; &amp;nbsp; &amp;nbsp; &amp;nbsp; -" style="text;html=1;align=center;verticalAlign=middle;whiteSpace=wrap;rounded=0;fillColor=none;strokeColor=none;" vertex="1" parent="1">
          <mxGeometry x="85" y="516.5" width="60" height="30" as="geometry" />
        </mxCell>
        <mxCell id="irj82ddTTEciqD4pm7NS-67" value="TEG" style="rounded=1;whiteSpace=wrap;html=1;fontStyle=1;fontSize=16;fillColor=#ffe6cc;strokeColor=#d79b00;" vertex="1" parent="1">
          <mxGeometry x="85" y="556.5" width="60" height="40" as="geometry" />
        </mxCell>
        <mxCell id="irj82ddTTEciqD4pm7NS-68" value="+&amp;nbsp; &amp;nbsp; &amp;nbsp; &amp;nbsp; &amp;nbsp; &amp;nbsp; -" style="text;html=1;align=center;verticalAlign=middle;whiteSpace=wrap;rounded=0;fillColor=none;strokeColor=none;" vertex="1" parent="1">
          <mxGeometry x="85" y="561.5" width="60" height="30" as="geometry" />
        </mxCell>
        <mxCell id="irj82ddTTEciqD4pm7NS-106" value="TEG" style="rounded=1;whiteSpace=wrap;html=1;fontStyle=1;fontSize=16;fillColor=#ffe6cc;strokeColor=#d79b00;" vertex="1" parent="1">
          <mxGeometry x="85" y="646.5" width="60" height="40" as="geometry" />
        </mxCell>
        <mxCell id="irj82ddTTEciqD4pm7NS-107" value="+&amp;nbsp; &amp;nbsp; &amp;nbsp; &amp;nbsp; &amp;nbsp; &amp;nbsp; -" style="text;html=1;align=center;verticalAlign=middle;whiteSpace=wrap;rounded=0;fillColor=none;strokeColor=none;" vertex="1" parent="1">
          <mxGeometry x="85" y="651.5" width="60" height="30" as="geometry" />
        </mxCell>
        <mxCell id="irj82ddTTEciqD4pm7NS-99" value="" style="group;fillColor=none;strokeColor=none;container=0;" vertex="1" connectable="0" parent="1">
          <mxGeometry x="85" y="691.5" width="60" height="40" as="geometry" />
        </mxCell>
        <mxCell id="irj82ddTTEciqD4pm7NS-71" value="TEG" style="rounded=1;whiteSpace=wrap;html=1;fontStyle=1;fontSize=16;fillColor=#ffe6cc;strokeColor=#d79b00;" vertex="1" parent="1">
          <mxGeometry x="85" y="601.5" width="60" height="40" as="geometry" />
        </mxCell>
        <mxCell id="irj82ddTTEciqD4pm7NS-72" value="+&amp;nbsp; &amp;nbsp; &amp;nbsp; &amp;nbsp; &amp;nbsp; &amp;nbsp; -" style="text;html=1;align=center;verticalAlign=middle;whiteSpace=wrap;rounded=0;fillColor=none;strokeColor=none;" vertex="1" parent="1">
          <mxGeometry x="85" y="606.5" width="60" height="30" as="geometry" />
        </mxCell>
        <mxCell id="irj82ddTTEciqD4pm7NS-96" value="" style="line;strokeWidth=2;html=1;" vertex="1" parent="1">
          <mxGeometry x="74" y="616.5" width="11" height="10" as="geometry" />
        </mxCell>
        <mxCell id="irj82ddTTEciqD4pm7NS-100" value="TEG" style="rounded=1;whiteSpace=wrap;html=1;fontStyle=1;fontSize=16;fillColor=#ffe6cc;strokeColor=#d79b00;" vertex="1" parent="1">
          <mxGeometry x="85" y="691.5" width="60" height="40" as="geometry" />
        </mxCell>
        <mxCell id="irj82ddTTEciqD4pm7NS-101" value="+&amp;nbsp; &amp;nbsp; &amp;nbsp; &amp;nbsp; &amp;nbsp; &amp;nbsp; -" style="text;html=1;align=center;verticalAlign=middle;whiteSpace=wrap;rounded=0;fillColor=none;strokeColor=none;" vertex="1" parent="1">
          <mxGeometry x="85" y="696.5" width="60" height="30" as="geometry" />
        </mxCell>
        <mxCell id="irj82ddTTEciqD4pm7NS-102" value="" style="line;strokeWidth=2;html=1;" vertex="1" parent="1">
          <mxGeometry x="74" y="706.5" width="11" height="10" as="geometry" />
        </mxCell>
        <mxCell id="irj82ddTTEciqD4pm7NS-121" value="" style="line;strokeWidth=2;direction=south;html=1;container=0;" vertex="1" parent="1">
          <mxGeometry x="175" y="486.5" width="10" height="225" as="geometry" />
        </mxCell>
        <mxCell id="irj82ddTTEciqD4pm7NS-122" value="" style="line;strokeWidth=2;html=1;container=0;" vertex="1" parent="1">
          <mxGeometry x="250" y="581.5" width="14" height="10" as="geometry" />
        </mxCell>
        <mxCell id="irj82ddTTEciqD4pm7NS-123" value="" style="line;strokeWidth=2;html=1;container=0;" vertex="1" parent="1">
          <mxGeometry x="250" y="481.5" width="14" height="10" as="geometry" />
        </mxCell>
        <mxCell id="irj82ddTTEciqD4pm7NS-124" value="" style="line;strokeWidth=2;html=1;container=0;" vertex="1" parent="1">
          <mxGeometry x="250" y="531.5" width="14" height="10" as="geometry" />
        </mxCell>
        <mxCell id="irj82ddTTEciqD4pm7NS-125" value="" style="line;strokeWidth=2;html=1;container=0;" vertex="1" parent="1">
          <mxGeometry x="179" y="481.5" width="11" height="10" as="geometry" />
        </mxCell>
        <mxCell id="irj82ddTTEciqD4pm7NS-126" value="" style="line;strokeWidth=2;html=1;container=0;" vertex="1" parent="1">
          <mxGeometry x="179" y="531.5" width="11" height="10" as="geometry" />
        </mxCell>
        <mxCell id="irj82ddTTEciqD4pm7NS-127" value="" style="line;strokeWidth=2;html=1;container=0;" vertex="1" parent="1">
          <mxGeometry x="179" y="581.5" width="11" height="10" as="geometry" />
        </mxCell>
        <mxCell id="irj82ddTTEciqD4pm7NS-134" value="" style="line;strokeWidth=2;html=1;container=0;" vertex="1" parent="1">
          <mxGeometry x="250" y="616.5" width="14" height="10" as="geometry" />
        </mxCell>
        <mxCell id="irj82ddTTEciqD4pm7NS-140" value="" style="line;strokeWidth=2;html=1;container=0;" vertex="1" parent="1">
          <mxGeometry x="250" y="661.5" width="14" height="10" as="geometry" />
        </mxCell>
        <mxCell id="irj82ddTTEciqD4pm7NS-141" value="" style="line;strokeWidth=2;html=1;container=0;" vertex="1" parent="1">
          <mxGeometry x="179" y="661.5" width="11" height="10" as="geometry" />
        </mxCell>
        <mxCell id="irj82ddTTEciqD4pm7NS-145" value="" style="line;strokeWidth=2;html=1;container=0;" vertex="1" parent="1">
          <mxGeometry x="250" y="706.5" width="14" height="10" as="geometry" />
        </mxCell>
        <mxCell id="irj82ddTTEciqD4pm7NS-146" value="" style="line;strokeWidth=2;direction=south;html=1;container=0;" vertex="1" parent="1">
          <mxGeometry x="258" y="486.5" width="10" height="225" as="geometry" />
        </mxCell>
        <mxCell id="irj82ddTTEciqD4pm7NS-114" value="TEG" style="rounded=1;whiteSpace=wrap;html=1;fontStyle=1;fontSize=16;container=0;fillColor=#fff2cc;strokeColor=#d6b656;" vertex="1" parent="1">
          <mxGeometry x="190" y="511.5" width="60" height="40" as="geometry" />
        </mxCell>
        <mxCell id="irj82ddTTEciqD4pm7NS-115" value="+&amp;nbsp; &amp;nbsp; &amp;nbsp; &amp;nbsp; &amp;nbsp; &amp;nbsp; -" style="text;html=1;align=center;verticalAlign=middle;whiteSpace=wrap;rounded=0;container=0;fillColor=none;strokeColor=none;" vertex="1" parent="1">
          <mxGeometry x="190" y="516.5" width="60" height="30" as="geometry" />
        </mxCell>
        <mxCell id="irj82ddTTEciqD4pm7NS-118" value="TEG" style="rounded=1;whiteSpace=wrap;html=1;fontStyle=1;fontSize=16;container=0;fillColor=#fff2cc;strokeColor=#d6b656;" vertex="1" parent="1">
          <mxGeometry x="190" y="601.5" width="60" height="40" as="geometry" />
        </mxCell>
        <mxCell id="irj82ddTTEciqD4pm7NS-119" value="+&amp;nbsp; &amp;nbsp; &amp;nbsp; &amp;nbsp; &amp;nbsp; &amp;nbsp; -" style="text;html=1;align=center;verticalAlign=middle;whiteSpace=wrap;rounded=0;container=0;fillColor=none;strokeColor=none;" vertex="1" parent="1">
          <mxGeometry x="190" y="606.5" width="60" height="30" as="geometry" />
        </mxCell>
        <mxCell id="irj82ddTTEciqD4pm7NS-120" value="" style="line;strokeWidth=2;html=1;container=0;" vertex="1" parent="1">
          <mxGeometry x="179" y="616.5" width="11" height="10" as="geometry" />
        </mxCell>
        <mxCell id="irj82ddTTEciqD4pm7NS-129" value="TEG" style="rounded=1;whiteSpace=wrap;html=1;fontStyle=1;fontSize=16;container=0;fillColor=#fff2cc;strokeColor=#d6b656;" vertex="1" parent="1">
          <mxGeometry x="190" y="556.5" width="60" height="40" as="geometry" />
        </mxCell>
        <mxCell id="irj82ddTTEciqD4pm7NS-130" value="+&amp;nbsp; &amp;nbsp; &amp;nbsp; &amp;nbsp; &amp;nbsp; &amp;nbsp; -" style="text;html=1;align=center;verticalAlign=middle;whiteSpace=wrap;rounded=0;container=0;fillColor=none;strokeColor=none;" vertex="1" parent="1">
          <mxGeometry x="190" y="561.5" width="60" height="30" as="geometry" />
        </mxCell>
        <mxCell id="irj82ddTTEciqD4pm7NS-132" value="TEG" style="rounded=1;whiteSpace=wrap;html=1;fontStyle=1;fontSize=16;container=0;fillColor=#fff2cc;strokeColor=#d6b656;" vertex="1" parent="1">
          <mxGeometry x="190" y="466.5" width="60" height="40" as="geometry" />
        </mxCell>
        <mxCell id="irj82ddTTEciqD4pm7NS-133" value="+&amp;nbsp; &amp;nbsp; &amp;nbsp; &amp;nbsp; &amp;nbsp; &amp;nbsp; -" style="text;html=1;align=center;verticalAlign=middle;whiteSpace=wrap;rounded=0;container=0;fillColor=none;strokeColor=none;" vertex="1" parent="1">
          <mxGeometry x="190" y="471.5" width="60" height="30" as="geometry" />
        </mxCell>
        <mxCell id="irj82ddTTEciqD4pm7NS-137" value="TEG" style="rounded=1;whiteSpace=wrap;html=1;fontStyle=1;fontSize=16;container=0;fillColor=#fff2cc;strokeColor=#d6b656;" vertex="1" parent="1">
          <mxGeometry x="190" y="691.5" width="60" height="40" as="geometry" />
        </mxCell>
        <mxCell id="irj82ddTTEciqD4pm7NS-138" value="+&amp;nbsp; &amp;nbsp; &amp;nbsp; &amp;nbsp; &amp;nbsp; &amp;nbsp; -" style="text;html=1;align=center;verticalAlign=middle;whiteSpace=wrap;rounded=0;container=0;fillColor=none;strokeColor=none;" vertex="1" parent="1">
          <mxGeometry x="190" y="696.5" width="60" height="30" as="geometry" />
        </mxCell>
        <mxCell id="irj82ddTTEciqD4pm7NS-139" value="" style="line;strokeWidth=2;html=1;container=0;" vertex="1" parent="1">
          <mxGeometry x="179" y="706.5" width="11" height="10" as="geometry" />
        </mxCell>
        <mxCell id="irj82ddTTEciqD4pm7NS-143" value="TEG" style="rounded=1;whiteSpace=wrap;html=1;fontStyle=1;fontSize=16;container=0;fillColor=#fff2cc;strokeColor=#d6b656;" vertex="1" parent="1">
          <mxGeometry x="190" y="646.5" width="60" height="40" as="geometry" />
        </mxCell>
        <mxCell id="irj82ddTTEciqD4pm7NS-144" value="+&amp;nbsp; &amp;nbsp; &amp;nbsp; &amp;nbsp; &amp;nbsp; &amp;nbsp; -" style="text;html=1;align=center;verticalAlign=middle;whiteSpace=wrap;rounded=0;container=0;fillColor=none;strokeColor=none;" vertex="1" parent="1">
          <mxGeometry x="190" y="651.5" width="60" height="30" as="geometry" />
        </mxCell>
        <mxCell id="irj82ddTTEciqD4pm7NS-156" value="" style="line;strokeWidth=2;direction=south;html=1;container=0;" vertex="1" parent="1">
          <mxGeometry x="275" y="486.5" width="10" height="225" as="geometry" />
        </mxCell>
        <mxCell id="irj82ddTTEciqD4pm7NS-157" value="" style="line;strokeWidth=2;html=1;container=0;" vertex="1" parent="1">
          <mxGeometry x="350" y="581.5" width="14" height="10" as="geometry" />
        </mxCell>
        <mxCell id="irj82ddTTEciqD4pm7NS-158" value="" style="line;strokeWidth=2;html=1;container=0;" vertex="1" parent="1">
          <mxGeometry x="350" y="481.5" width="14" height="10" as="geometry" />
        </mxCell>
        <mxCell id="irj82ddTTEciqD4pm7NS-159" value="" style="line;strokeWidth=2;html=1;container=0;" vertex="1" parent="1">
          <mxGeometry x="350" y="531.5" width="14" height="10" as="geometry" />
        </mxCell>
        <mxCell id="irj82ddTTEciqD4pm7NS-160" value="" style="line;strokeWidth=2;html=1;container=0;" vertex="1" parent="1">
          <mxGeometry x="279" y="481.5" width="11" height="10" as="geometry" />
        </mxCell>
        <mxCell id="irj82ddTTEciqD4pm7NS-161" value="" style="line;strokeWidth=2;html=1;container=0;" vertex="1" parent="1">
          <mxGeometry x="279" y="531.5" width="11" height="10" as="geometry" />
        </mxCell>
        <mxCell id="irj82ddTTEciqD4pm7NS-162" value="" style="line;strokeWidth=2;html=1;container=0;" vertex="1" parent="1">
          <mxGeometry x="279" y="581.5" width="11" height="10" as="geometry" />
        </mxCell>
        <mxCell id="irj82ddTTEciqD4pm7NS-169" value="" style="line;strokeWidth=2;html=1;container=0;" vertex="1" parent="1">
          <mxGeometry x="350" y="616.5" width="14" height="10" as="geometry" />
        </mxCell>
        <mxCell id="irj82ddTTEciqD4pm7NS-175" value="" style="line;strokeWidth=2;html=1;container=0;" vertex="1" parent="1">
          <mxGeometry x="350" y="661.5" width="14" height="10" as="geometry" />
        </mxCell>
        <mxCell id="irj82ddTTEciqD4pm7NS-176" value="" style="line;strokeWidth=2;html=1;container=0;" vertex="1" parent="1">
          <mxGeometry x="279" y="661.5" width="11" height="10" as="geometry" />
        </mxCell>
        <mxCell id="irj82ddTTEciqD4pm7NS-180" value="" style="line;strokeWidth=2;html=1;container=0;" vertex="1" parent="1">
          <mxGeometry x="350" y="706.5" width="14" height="10" as="geometry" />
        </mxCell>
        <mxCell id="irj82ddTTEciqD4pm7NS-181" value="" style="line;strokeWidth=2;direction=south;html=1;container=0;" vertex="1" parent="1">
          <mxGeometry x="358" y="486.5" width="10" height="225" as="geometry" />
        </mxCell>
        <mxCell id="irj82ddTTEciqD4pm7NS-149" value="TEG" style="rounded=1;whiteSpace=wrap;html=1;fontStyle=1;fontSize=16;container=0;fillColor=#f8cecc;strokeColor=#b85450;" vertex="1" parent="1">
          <mxGeometry x="290" y="511.5" width="60" height="40" as="geometry" />
        </mxCell>
        <mxCell id="irj82ddTTEciqD4pm7NS-150" value="+&amp;nbsp; &amp;nbsp; &amp;nbsp; &amp;nbsp; &amp;nbsp; &amp;nbsp; -" style="text;html=1;align=center;verticalAlign=middle;whiteSpace=wrap;rounded=0;container=0;fillColor=none;strokeColor=none;" vertex="1" parent="1">
          <mxGeometry x="290" y="516.5" width="60" height="30" as="geometry" />
        </mxCell>
        <mxCell id="irj82ddTTEciqD4pm7NS-153" value="TEG" style="rounded=1;whiteSpace=wrap;html=1;fontStyle=1;fontSize=16;container=0;fillColor=#f8cecc;strokeColor=#b85450;" vertex="1" parent="1">
          <mxGeometry x="290" y="601.5" width="60" height="40" as="geometry" />
        </mxCell>
        <mxCell id="irj82ddTTEciqD4pm7NS-154" value="+&amp;nbsp; &amp;nbsp; &amp;nbsp; &amp;nbsp; &amp;nbsp; &amp;nbsp; -" style="text;html=1;align=center;verticalAlign=middle;whiteSpace=wrap;rounded=0;container=0;fillColor=none;strokeColor=none;" vertex="1" parent="1">
          <mxGeometry x="290" y="606.5" width="60" height="30" as="geometry" />
        </mxCell>
        <mxCell id="irj82ddTTEciqD4pm7NS-155" value="" style="line;strokeWidth=2;html=1;container=0;" vertex="1" parent="1">
          <mxGeometry x="279" y="616.5" width="11" height="10" as="geometry" />
        </mxCell>
        <mxCell id="irj82ddTTEciqD4pm7NS-164" value="TEG" style="rounded=1;whiteSpace=wrap;html=1;fontStyle=1;fontSize=16;container=0;fillColor=#f8cecc;strokeColor=#b85450;" vertex="1" parent="1">
          <mxGeometry x="290" y="556.5" width="60" height="40" as="geometry" />
        </mxCell>
        <mxCell id="irj82ddTTEciqD4pm7NS-165" value="+&amp;nbsp; &amp;nbsp; &amp;nbsp; &amp;nbsp; &amp;nbsp; &amp;nbsp; -" style="text;html=1;align=center;verticalAlign=middle;whiteSpace=wrap;rounded=0;container=0;fillColor=none;strokeColor=none;" vertex="1" parent="1">
          <mxGeometry x="290" y="561.5" width="60" height="30" as="geometry" />
        </mxCell>
        <mxCell id="irj82ddTTEciqD4pm7NS-167" value="TEG" style="rounded=1;whiteSpace=wrap;html=1;fontStyle=1;fontSize=16;container=0;fillColor=#f8cecc;strokeColor=#b85450;" vertex="1" parent="1">
          <mxGeometry x="290" y="466.5" width="60" height="40" as="geometry" />
        </mxCell>
        <mxCell id="irj82ddTTEciqD4pm7NS-168" value="+&amp;nbsp; &amp;nbsp; &amp;nbsp; &amp;nbsp; &amp;nbsp; &amp;nbsp; -" style="text;html=1;align=center;verticalAlign=middle;whiteSpace=wrap;rounded=0;container=0;fillColor=none;strokeColor=none;" vertex="1" parent="1">
          <mxGeometry x="290" y="471.5" width="60" height="30" as="geometry" />
        </mxCell>
        <mxCell id="irj82ddTTEciqD4pm7NS-172" value="TEG" style="rounded=1;whiteSpace=wrap;html=1;fontStyle=1;fontSize=16;container=0;fillColor=#f8cecc;strokeColor=#b85450;" vertex="1" parent="1">
          <mxGeometry x="290" y="691.5" width="60" height="40" as="geometry" />
        </mxCell>
        <mxCell id="irj82ddTTEciqD4pm7NS-173" value="+&amp;nbsp; &amp;nbsp; &amp;nbsp; &amp;nbsp; &amp;nbsp; &amp;nbsp; -" style="text;html=1;align=center;verticalAlign=middle;whiteSpace=wrap;rounded=0;container=0;fillColor=none;strokeColor=none;" vertex="1" parent="1">
          <mxGeometry x="290" y="696.5" width="60" height="30" as="geometry" />
        </mxCell>
        <mxCell id="irj82ddTTEciqD4pm7NS-174" value="" style="line;strokeWidth=2;html=1;container=0;" vertex="1" parent="1">
          <mxGeometry x="279" y="706.5" width="11" height="10" as="geometry" />
        </mxCell>
        <mxCell id="irj82ddTTEciqD4pm7NS-178" value="TEG" style="rounded=1;whiteSpace=wrap;html=1;fontStyle=1;fontSize=16;container=0;fillColor=#f8cecc;strokeColor=#b85450;" vertex="1" parent="1">
          <mxGeometry x="290" y="646.5" width="60" height="40" as="geometry" />
        </mxCell>
        <mxCell id="irj82ddTTEciqD4pm7NS-179" value="+&amp;nbsp; &amp;nbsp; &amp;nbsp; &amp;nbsp; &amp;nbsp; &amp;nbsp; -" style="text;html=1;align=center;verticalAlign=middle;whiteSpace=wrap;rounded=0;container=0;fillColor=none;strokeColor=none;" vertex="1" parent="1">
          <mxGeometry x="290" y="651.5" width="60" height="30" as="geometry" />
        </mxCell>
        <mxCell id="irj82ddTTEciqD4pm7NS-191" value="" style="line;strokeWidth=2;direction=south;html=1;container=0;" vertex="1" parent="1">
          <mxGeometry x="375" y="486.5" width="10" height="225" as="geometry" />
        </mxCell>
        <mxCell id="irj82ddTTEciqD4pm7NS-192" value="" style="line;strokeWidth=2;html=1;container=0;" vertex="1" parent="1">
          <mxGeometry x="450" y="581.5" width="14" height="10" as="geometry" />
        </mxCell>
        <mxCell id="irj82ddTTEciqD4pm7NS-193" value="" style="line;strokeWidth=2;html=1;container=0;" vertex="1" parent="1">
          <mxGeometry x="450" y="481.5" width="14" height="10" as="geometry" />
        </mxCell>
        <mxCell id="irj82ddTTEciqD4pm7NS-194" value="" style="line;strokeWidth=2;html=1;container=0;" vertex="1" parent="1">
          <mxGeometry x="450" y="531.5" width="14" height="10" as="geometry" />
        </mxCell>
        <mxCell id="irj82ddTTEciqD4pm7NS-195" value="" style="line;strokeWidth=2;html=1;container=0;" vertex="1" parent="1">
          <mxGeometry x="379" y="481.5" width="11" height="10" as="geometry" />
        </mxCell>
        <mxCell id="irj82ddTTEciqD4pm7NS-196" value="" style="line;strokeWidth=2;html=1;container=0;" vertex="1" parent="1">
          <mxGeometry x="379" y="531.5" width="11" height="10" as="geometry" />
        </mxCell>
        <mxCell id="irj82ddTTEciqD4pm7NS-197" value="" style="line;strokeWidth=2;html=1;container=0;" vertex="1" parent="1">
          <mxGeometry x="379" y="581.5" width="11" height="10" as="geometry" />
        </mxCell>
        <mxCell id="irj82ddTTEciqD4pm7NS-204" value="" style="line;strokeWidth=2;html=1;container=0;" vertex="1" parent="1">
          <mxGeometry x="450" y="616.5" width="14" height="10" as="geometry" />
        </mxCell>
        <mxCell id="irj82ddTTEciqD4pm7NS-210" value="" style="line;strokeWidth=2;html=1;container=0;" vertex="1" parent="1">
          <mxGeometry x="450" y="661.5" width="14" height="10" as="geometry" />
        </mxCell>
        <mxCell id="irj82ddTTEciqD4pm7NS-211" value="" style="line;strokeWidth=2;html=1;container=0;" vertex="1" parent="1">
          <mxGeometry x="379" y="661.5" width="11" height="10" as="geometry" />
        </mxCell>
        <mxCell id="irj82ddTTEciqD4pm7NS-215" value="" style="line;strokeWidth=2;html=1;container=0;" vertex="1" parent="1">
          <mxGeometry x="450" y="706.5" width="14" height="10" as="geometry" />
        </mxCell>
        <mxCell id="irj82ddTTEciqD4pm7NS-216" value="" style="line;strokeWidth=2;direction=south;html=1;container=0;" vertex="1" parent="1">
          <mxGeometry x="458" y="486.5" width="10" height="225" as="geometry" />
        </mxCell>
        <mxCell id="irj82ddTTEciqD4pm7NS-219" value="" style="line;strokeWidth=2;html=1;" vertex="1" parent="1">
          <mxGeometry x="361" y="581.5" width="24" height="10" as="geometry" />
        </mxCell>
        <mxCell id="irj82ddTTEciqD4pm7NS-223" value="" style="line;strokeWidth=2;html=1;" vertex="1" parent="1">
          <mxGeometry x="455" y="581.5" width="24" height="10" as="geometry" />
        </mxCell>
        <mxCell id="irj82ddTTEciqD4pm7NS-184" value="TEG" style="rounded=1;whiteSpace=wrap;html=1;fontStyle=1;fontSize=16;container=0;fillColor=#e1d5e7;strokeColor=#9673a6;" vertex="1" parent="1">
          <mxGeometry x="390" y="511.5" width="60" height="40" as="geometry" />
        </mxCell>
        <mxCell id="irj82ddTTEciqD4pm7NS-185" value="+&amp;nbsp; &amp;nbsp; &amp;nbsp; &amp;nbsp; &amp;nbsp; &amp;nbsp; -" style="text;html=1;align=center;verticalAlign=middle;whiteSpace=wrap;rounded=0;container=0;fillColor=none;strokeColor=none;" vertex="1" parent="1">
          <mxGeometry x="390" y="516.5" width="60" height="30" as="geometry" />
        </mxCell>
        <mxCell id="irj82ddTTEciqD4pm7NS-188" value="TEG" style="rounded=1;whiteSpace=wrap;html=1;fontStyle=1;fontSize=16;container=0;fillColor=#e1d5e7;strokeColor=#9673a6;" vertex="1" parent="1">
          <mxGeometry x="390" y="601.5" width="60" height="40" as="geometry" />
        </mxCell>
        <mxCell id="irj82ddTTEciqD4pm7NS-189" value="+&amp;nbsp; &amp;nbsp; &amp;nbsp; &amp;nbsp; &amp;nbsp; &amp;nbsp; -" style="text;html=1;align=center;verticalAlign=middle;whiteSpace=wrap;rounded=0;container=0;fillColor=none;strokeColor=none;" vertex="1" parent="1">
          <mxGeometry x="390" y="606.5" width="60" height="30" as="geometry" />
        </mxCell>
        <mxCell id="irj82ddTTEciqD4pm7NS-190" value="" style="line;strokeWidth=2;html=1;container=0;" vertex="1" parent="1">
          <mxGeometry x="379" y="616.5" width="11" height="10" as="geometry" />
        </mxCell>
        <mxCell id="irj82ddTTEciqD4pm7NS-199" value="TEG" style="rounded=1;whiteSpace=wrap;html=1;fontStyle=1;fontSize=16;container=0;fillColor=#e1d5e7;strokeColor=#9673a6;" vertex="1" parent="1">
          <mxGeometry x="390" y="556.5" width="60" height="40" as="geometry" />
        </mxCell>
        <mxCell id="irj82ddTTEciqD4pm7NS-200" value="+&amp;nbsp; &amp;nbsp; &amp;nbsp; &amp;nbsp; &amp;nbsp; &amp;nbsp; -" style="text;html=1;align=center;verticalAlign=middle;whiteSpace=wrap;rounded=0;container=0;fillColor=none;strokeColor=none;" vertex="1" parent="1">
          <mxGeometry x="390" y="561.5" width="60" height="30" as="geometry" />
        </mxCell>
        <mxCell id="irj82ddTTEciqD4pm7NS-202" value="TEG" style="rounded=1;whiteSpace=wrap;html=1;fontStyle=1;fontSize=16;container=0;fillColor=#e1d5e7;strokeColor=#9673a6;" vertex="1" parent="1">
          <mxGeometry x="390" y="466.5" width="60" height="40" as="geometry" />
        </mxCell>
        <mxCell id="irj82ddTTEciqD4pm7NS-203" value="+&amp;nbsp; &amp;nbsp; &amp;nbsp; &amp;nbsp; &amp;nbsp; &amp;nbsp; -" style="text;html=1;align=center;verticalAlign=middle;whiteSpace=wrap;rounded=0;container=0;fillColor=none;strokeColor=none;" vertex="1" parent="1">
          <mxGeometry x="390" y="471.5" width="60" height="30" as="geometry" />
        </mxCell>
        <mxCell id="irj82ddTTEciqD4pm7NS-213" value="TEG" style="rounded=1;whiteSpace=wrap;html=1;fontStyle=1;fontSize=16;container=0;fillColor=#e1d5e7;strokeColor=#9673a6;" vertex="1" parent="1">
          <mxGeometry x="390" y="646.5" width="60" height="40" as="geometry" />
        </mxCell>
        <mxCell id="irj82ddTTEciqD4pm7NS-214" value="+&amp;nbsp; &amp;nbsp; &amp;nbsp; &amp;nbsp; &amp;nbsp; &amp;nbsp; -" style="text;html=1;align=center;verticalAlign=middle;whiteSpace=wrap;rounded=0;container=0;fillColor=none;strokeColor=none;" vertex="1" parent="1">
          <mxGeometry x="390" y="651.5" width="60" height="30" as="geometry" />
        </mxCell>
        <mxCell id="irj82ddTTEciqD4pm7NS-206" value="" style="group;fillColor=none;strokeColor=none;container=0;" vertex="1" connectable="0" parent="1">
          <mxGeometry x="390" y="691.5" width="60" height="40" as="geometry" />
        </mxCell>
        <mxCell id="irj82ddTTEciqD4pm7NS-207" value="TEG" style="rounded=1;whiteSpace=wrap;html=1;fontStyle=1;fontSize=16;fillColor=#e1d5e7;strokeColor=#9673a6;" vertex="1" parent="1">
          <mxGeometry x="390" y="691.5" width="60" height="40" as="geometry" />
        </mxCell>
        <mxCell id="irj82ddTTEciqD4pm7NS-208" value="+&amp;nbsp; &amp;nbsp; &amp;nbsp; &amp;nbsp; &amp;nbsp; &amp;nbsp; -" style="text;html=1;align=center;verticalAlign=middle;whiteSpace=wrap;rounded=0;fillColor=none;strokeColor=none;" vertex="1" parent="1">
          <mxGeometry x="390" y="696.5" width="60" height="30" as="geometry" />
        </mxCell>
        <mxCell id="irj82ddTTEciqD4pm7NS-209" value="" style="line;strokeWidth=2;html=1;container=0;" vertex="1" parent="1">
          <mxGeometry x="379" y="706.5" width="11" height="10" as="geometry" />
        </mxCell>
        <mxCell id="irj82ddTTEciqD4pm7NS-240" value="" style="group" vertex="1" connectable="0" parent="1">
          <mxGeometry x="314" y="70" width="199.75" height="275.75" as="geometry" />
        </mxCell>
        <mxCell id="irj82ddTTEciqD4pm7NS-31" value="" style="rounded=1;whiteSpace=wrap;html=1;dashed=1;dashPattern=1 1;fillColor=none;" vertex="1" parent="irj82ddTTEciqD4pm7NS-240">
          <mxGeometry width="105" height="260" as="geometry" />
        </mxCell>
        <mxCell id="irj82ddTTEciqD4pm7NS-25" value="" style="group" vertex="1" connectable="0" parent="irj82ddTTEciqD4pm7NS-240">
          <mxGeometry x="20" y="70" width="60" height="40" as="geometry" />
        </mxCell>
        <mxCell id="irj82ddTTEciqD4pm7NS-26" value="TEG" style="rounded=1;whiteSpace=wrap;html=1;fontStyle=1;fontSize=16;" vertex="1" parent="irj82ddTTEciqD4pm7NS-25">
          <mxGeometry width="60" height="40" as="geometry" />
        </mxCell>
        <mxCell id="irj82ddTTEciqD4pm7NS-42" value="+&amp;nbsp; &amp;nbsp; &amp;nbsp; &amp;nbsp; &amp;nbsp; &amp;nbsp; -" style="text;html=1;align=center;verticalAlign=middle;whiteSpace=wrap;rounded=0;" vertex="1" parent="irj82ddTTEciqD4pm7NS-25">
          <mxGeometry y="5" width="60" height="30" as="geometry" />
        </mxCell>
        <mxCell id="irj82ddTTEciqD4pm7NS-28" value="" style="group" vertex="1" connectable="0" parent="irj82ddTTEciqD4pm7NS-240">
          <mxGeometry x="20" y="120" width="60" height="90" as="geometry" />
        </mxCell>
        <mxCell id="irj82ddTTEciqD4pm7NS-29" value="TEG" style="rounded=1;whiteSpace=wrap;html=1;fontStyle=1;fontSize=16;" vertex="1" parent="irj82ddTTEciqD4pm7NS-28">
          <mxGeometry width="60" height="40" as="geometry" />
        </mxCell>
        <mxCell id="irj82ddTTEciqD4pm7NS-43" value="+&amp;nbsp; &amp;nbsp; &amp;nbsp; &amp;nbsp; &amp;nbsp; &amp;nbsp; -" style="text;html=1;align=center;verticalAlign=middle;whiteSpace=wrap;rounded=0;" vertex="1" parent="irj82ddTTEciqD4pm7NS-28">
          <mxGeometry y="5" width="60" height="30" as="geometry" />
        </mxCell>
        <mxCell id="irj82ddTTEciqD4pm7NS-32" value="" style="line;strokeWidth=2;direction=south;html=1;dashed=1;dashPattern=1 1;" vertex="1" parent="irj82ddTTEciqD4pm7NS-28">
          <mxGeometry x="25" y="46" width="10" height="30" as="geometry" />
        </mxCell>
        <mxCell id="irj82ddTTEciqD4pm7NS-33" value="" style="group" vertex="1" connectable="0" parent="irj82ddTTEciqD4pm7NS-240">
          <mxGeometry x="20" y="200" width="60" height="40" as="geometry" />
        </mxCell>
        <mxCell id="irj82ddTTEciqD4pm7NS-34" value="TEG" style="rounded=1;whiteSpace=wrap;html=1;fontStyle=1;fontSize=16;" vertex="1" parent="irj82ddTTEciqD4pm7NS-33">
          <mxGeometry width="60" height="40" as="geometry" />
        </mxCell>
        <mxCell id="irj82ddTTEciqD4pm7NS-44" value="+&amp;nbsp; &amp;nbsp; &amp;nbsp; &amp;nbsp; &amp;nbsp; &amp;nbsp; -" style="text;html=1;align=center;verticalAlign=middle;whiteSpace=wrap;rounded=0;" vertex="1" parent="irj82ddTTEciqD4pm7NS-33">
          <mxGeometry y="5" width="60" height="30" as="geometry" />
        </mxCell>
        <mxCell id="irj82ddTTEciqD4pm7NS-45" value="" style="group" vertex="1" connectable="0" parent="irj82ddTTEciqD4pm7NS-240">
          <mxGeometry x="90" y="6" width="60" height="160" as="geometry" />
        </mxCell>
        <mxCell id="irj82ddTTEciqD4pm7NS-37" value="" style="line;strokeWidth=2;direction=south;html=1;" vertex="1" parent="irj82ddTTEciqD4pm7NS-45">
          <mxGeometry y="4" width="6.32" height="150" as="geometry" />
        </mxCell>
        <mxCell id="irj82ddTTEciqD4pm7NS-40" value="" style="line;strokeWidth=2;html=1;" vertex="1" parent="irj82ddTTEciqD4pm7NS-45">
          <mxGeometry x="3.16" width="46.84" height="10" as="geometry" />
        </mxCell>
        <mxCell id="irj82ddTTEciqD4pm7NS-47" value="" style="group" vertex="1" connectable="0" parent="irj82ddTTEciqD4pm7NS-240">
          <mxGeometry x="5" y="240" width="185" height="14" as="geometry" />
        </mxCell>
        <mxCell id="irj82ddTTEciqD4pm7NS-36" value="" style="line;strokeWidth=2;direction=south;html=1;" vertex="1" parent="irj82ddTTEciqD4pm7NS-47">
          <mxGeometry y="-40" width="13.703703703703704" height="50" as="geometry" />
        </mxCell>
        <mxCell id="irj82ddTTEciqD4pm7NS-39" value="" style="line;strokeWidth=2;html=1;" vertex="1" parent="irj82ddTTEciqD4pm7NS-47">
          <mxGeometry x="6.851851851851852" y="4" width="178.14814814814815" height="10" as="geometry" />
        </mxCell>
        <mxCell id="irj82ddTTEciqD4pm7NS-22" value="TEG" style="rounded=1;whiteSpace=wrap;html=1;fontStyle=1;fontSize=16;" vertex="1" parent="irj82ddTTEciqD4pm7NS-240">
          <mxGeometry x="20" y="20" width="60" height="40" as="geometry" />
        </mxCell>
        <mxCell id="irj82ddTTEciqD4pm7NS-23" value="+&amp;nbsp; &amp;nbsp; &amp;nbsp; &amp;nbsp; &amp;nbsp; &amp;nbsp; -" style="text;html=1;align=center;verticalAlign=middle;whiteSpace=wrap;rounded=0;" vertex="1" parent="irj82ddTTEciqD4pm7NS-240">
          <mxGeometry x="20" y="25" width="60" height="30" as="geometry" />
        </mxCell>
        <mxCell id="irj82ddTTEciqD4pm7NS-48" value="" style="line;strokeWidth=2;direction=south;html=1;" vertex="1" parent="irj82ddTTEciqD4pm7NS-240">
          <mxGeometry x="5" y="40" width="10" height="120" as="geometry" />
        </mxCell>
        <mxCell id="irj82ddTTEciqD4pm7NS-49" value="" style="line;strokeWidth=2;direction=south;html=1;dashed=1;dashPattern=1 1;" vertex="1" parent="irj82ddTTEciqD4pm7NS-240">
          <mxGeometry x="5" y="160" width="10" height="40" as="geometry" />
        </mxCell>
        <mxCell id="irj82ddTTEciqD4pm7NS-50" value="" style="line;strokeWidth=2;direction=south;html=1;dashed=1;dashPattern=1 1;" vertex="1" parent="irj82ddTTEciqD4pm7NS-240">
          <mxGeometry x="88.18" y="160" width="10" height="40" as="geometry" />
        </mxCell>
        <mxCell id="irj82ddTTEciqD4pm7NS-51" value="" style="line;strokeWidth=2;direction=south;html=1;" vertex="1" parent="irj82ddTTEciqD4pm7NS-240">
          <mxGeometry x="88.18" y="200" width="10" height="20" as="geometry" />
        </mxCell>
        <mxCell id="irj82ddTTEciqD4pm7NS-54" value="" style="line;strokeWidth=2;html=1;" vertex="1" parent="irj82ddTTEciqD4pm7NS-240">
          <mxGeometry x="80" y="215" width="14" height="10" as="geometry" />
        </mxCell>
        <mxCell id="irj82ddTTEciqD4pm7NS-55" value="" style="line;strokeWidth=2;html=1;" vertex="1" parent="irj82ddTTEciqD4pm7NS-240">
          <mxGeometry x="80" y="135" width="14" height="10" as="geometry" />
        </mxCell>
        <mxCell id="irj82ddTTEciqD4pm7NS-56" value="" style="line;strokeWidth=2;html=1;" vertex="1" parent="irj82ddTTEciqD4pm7NS-240">
          <mxGeometry x="80" y="35" width="14" height="10" as="geometry" />
        </mxCell>
        <mxCell id="irj82ddTTEciqD4pm7NS-57" value="" style="line;strokeWidth=2;html=1;" vertex="1" parent="irj82ddTTEciqD4pm7NS-240">
          <mxGeometry x="80" y="85" width="14" height="10" as="geometry" />
        </mxCell>
        <mxCell id="irj82ddTTEciqD4pm7NS-58" value="" style="line;strokeWidth=2;html=1;" vertex="1" parent="irj82ddTTEciqD4pm7NS-240">
          <mxGeometry x="9" y="35" width="11" height="10" as="geometry" />
        </mxCell>
        <mxCell id="irj82ddTTEciqD4pm7NS-59" value="" style="line;strokeWidth=2;html=1;" vertex="1" parent="irj82ddTTEciqD4pm7NS-240">
          <mxGeometry x="9" y="85" width="11" height="10" as="geometry" />
        </mxCell>
        <mxCell id="irj82ddTTEciqD4pm7NS-60" value="" style="line;strokeWidth=2;html=1;" vertex="1" parent="irj82ddTTEciqD4pm7NS-240">
          <mxGeometry x="9" y="135" width="11" height="10" as="geometry" />
        </mxCell>
        <mxCell id="irj82ddTTEciqD4pm7NS-61" value="" style="line;strokeWidth=2;html=1;" vertex="1" parent="irj82ddTTEciqD4pm7NS-240">
          <mxGeometry x="9" y="215" width="11" height="10" as="geometry" />
        </mxCell>
        <mxCell id="irj82ddTTEciqD4pm7NS-250" value="" style="group" vertex="1" connectable="0" parent="irj82ddTTEciqD4pm7NS-240">
          <mxGeometry x="126" y="2.5999999999999943" width="69.25" height="273.15" as="geometry" />
        </mxCell>
        <mxCell id="irj82ddTTEciqD4pm7NS-232" value="" style="pointerEvents=1;verticalLabelPosition=bottom;shadow=0;dashed=0;align=center;html=1;verticalAlign=top;shape=mxgraph.electrical.resistors.resistor_2;rotation=-90;strokeWidth=2;" vertex="1" parent="irj82ddTTEciqD4pm7NS-250">
          <mxGeometry x="24.25" y="115.65" width="70" height="20" as="geometry" />
        </mxCell>
        <mxCell id="irj82ddTTEciqD4pm7NS-233" value="" style="html=1;shape=mxgraph.electrical.electro-mechanical.switchDisconnector;aspect=fixed;elSwitchState=off;strokeWidth=2;" vertex="1" parent="irj82ddTTEciqD4pm7NS-250">
          <mxGeometry x="6.25" width="37.5" height="10" as="geometry" />
        </mxCell>
        <mxCell id="irj82ddTTEciqD4pm7NS-234" value="" style="line;strokeWidth=2;direction=south;html=1;" vertex="1" parent="irj82ddTTEciqD4pm7NS-250">
          <mxGeometry x="54.25" y="157.4" width="10" height="90" as="geometry" />
        </mxCell>
        <mxCell id="irj82ddTTEciqD4pm7NS-235" value="" style="line;strokeWidth=2;direction=south;html=1;" vertex="1" parent="irj82ddTTEciqD4pm7NS-250">
          <mxGeometry x="54.25" y="7.400000000000006" width="10" height="86" as="geometry" />
        </mxCell>
        <mxCell id="irj82ddTTEciqD4pm7NS-236" value="" style="line;strokeWidth=2;html=1;" vertex="1" parent="irj82ddTTEciqD4pm7NS-250">
          <mxGeometry x="43.75" y="3.4000000000000057" width="16" height="10" as="geometry" />
        </mxCell>
        <mxCell id="irj82ddTTEciqD4pm7NS-237" value="" style="pointerEvents=1;verticalLabelPosition=bottom;shadow=0;dashed=0;align=center;html=1;verticalAlign=top;shape=mxgraph.electrical.signal_sources.protective_earth;strokeWidth=2;" vertex="1" parent="irj82ddTTEciqD4pm7NS-250">
          <mxGeometry y="253.15" width="25" height="20" as="geometry" />
        </mxCell>
        <mxCell id="irj82ddTTEciqD4pm7NS-238" value="" style="line;strokeWidth=2;html=1;rotation=90;" vertex="1" parent="irj82ddTTEciqD4pm7NS-250">
          <mxGeometry x="6.25" y="247.4" width="12.5" height="10" as="geometry" />
        </mxCell>
        <mxCell id="irj82ddTTEciqD4pm7NS-241" value="R&lt;sub&gt;Load&lt;/sub&gt;" style="text;strokeColor=none;fillColor=none;html=1;fontSize=18;fontStyle=1;verticalAlign=middle;align=center;" vertex="1" parent="1">
          <mxGeometry x="513.75" y="180" width="63" height="40" as="geometry" />
        </mxCell>
        <mxCell id="irj82ddTTEciqD4pm7NS-225" value="" style="pointerEvents=1;verticalLabelPosition=bottom;shadow=0;dashed=0;align=center;html=1;verticalAlign=top;shape=mxgraph.electrical.resistors.resistor_2;rotation=-90;strokeWidth=2;" vertex="1" parent="1">
          <mxGeometry x="183" y="190" width="70" height="20" as="geometry" />
        </mxCell>
        <mxCell id="irj82ddTTEciqD4pm7NS-226" value="" style="html=1;shape=mxgraph.electrical.electro-mechanical.switchDisconnector;aspect=fixed;elSwitchState=off;strokeWidth=2;" vertex="1" parent="1">
          <mxGeometry x="165" y="72.6" width="37.5" height="10" as="geometry" />
        </mxCell>
        <mxCell id="irj82ddTTEciqD4pm7NS-227" value="" style="line;strokeWidth=2;direction=south;html=1;" vertex="1" parent="1">
          <mxGeometry x="213" y="230" width="10" height="90" as="geometry" />
        </mxCell>
        <mxCell id="irj82ddTTEciqD4pm7NS-228" value="" style="line;strokeWidth=2;direction=south;html=1;" vertex="1" parent="1">
          <mxGeometry x="213" y="80" width="10" height="86" as="geometry" />
        </mxCell>
        <mxCell id="irj82ddTTEciqD4pm7NS-229" value="" style="line;strokeWidth=2;html=1;" vertex="1" parent="1">
          <mxGeometry x="202" y="76" width="16" height="10" as="geometry" />
        </mxCell>
        <mxCell id="irj82ddTTEciqD4pm7NS-230" value="" style="pointerEvents=1;verticalLabelPosition=bottom;shadow=0;dashed=0;align=center;html=1;verticalAlign=top;shape=mxgraph.electrical.signal_sources.protective_earth;strokeWidth=2;" vertex="1" parent="1">
          <mxGeometry x="158" y="324" width="25" height="20" as="geometry" />
        </mxCell>
        <mxCell id="irj82ddTTEciqD4pm7NS-231" value="" style="line;strokeWidth=2;html=1;rotation=90;" vertex="1" parent="1">
          <mxGeometry x="164.62" y="319" width="11.75" height="10" as="geometry" />
        </mxCell>
        <mxCell id="irj82ddTTEciqD4pm7NS-239" value="R&lt;sub&gt;Load&lt;/sub&gt;" style="text;strokeColor=none;fillColor=none;html=1;fontSize=18;fontStyle=1;verticalAlign=middle;align=center;" vertex="1" parent="1">
          <mxGeometry x="227" y="180" width="63" height="40" as="geometry" />
        </mxCell>
        <mxCell id="irj82ddTTEciqD4pm7NS-251" value="" style="group" vertex="1" connectable="0" parent="1">
          <mxGeometry x="130" y="20" width="164.5" height="115" as="geometry" />
        </mxCell>
        <mxCell id="irj82ddTTEciqD4pm7NS-248" value="V&lt;span style=&quot;font-size: 15px;&quot;&gt;&lt;sub&gt;Load&lt;/sub&gt;&lt;/span&gt;" style="text;strokeColor=none;fillColor=none;html=1;fontSize=18;fontStyle=1;verticalAlign=middle;align=center;" vertex="1" parent="irj82ddTTEciqD4pm7NS-251">
          <mxGeometry x="101.5" y="75" width="63" height="40" as="geometry" />
        </mxCell>
        <mxCell id="irj82ddTTEciqD4pm7NS-245" value="" style="edgeStyle=segmentEdgeStyle;endArrow=oval;html=1;curved=0;rounded=0;endSize=8;startSize=8;strokeWidth=2;endFill=0;" edge="1" parent="irj82ddTTEciqD4pm7NS-251">
          <mxGeometry width="50" height="50" relative="1" as="geometry">
            <mxPoint x="28" y="60" as="sourcePoint" />
            <mxPoint x="28.5" y="40" as="targetPoint" />
          </mxGeometry>
        </mxCell>
        <mxCell id="irj82ddTTEciqD4pm7NS-246" value="V&lt;sub&gt;OC&lt;/sub&gt;" style="text;strokeColor=none;fillColor=none;html=1;fontSize=18;fontStyle=1;verticalAlign=middle;align=center;" vertex="1" parent="irj82ddTTEciqD4pm7NS-251">
          <mxGeometry width="63" height="40" as="geometry" />
        </mxCell>
        <mxCell id="irj82ddTTEciqD4pm7NS-247" value="" style="edgeStyle=segmentEdgeStyle;endArrow=oval;html=1;curved=0;rounded=0;endSize=8;startSize=8;strokeWidth=2;endFill=0;exitX=0.463;exitY=0.54;exitDx=0;exitDy=0;exitPerimeter=0;" edge="1" parent="irj82ddTTEciqD4pm7NS-251" source="irj82ddTTEciqD4pm7NS-228">
          <mxGeometry width="50" height="50" relative="1" as="geometry">
            <mxPoint x="95" y="100" as="sourcePoint" />
            <mxPoint x="105" y="100" as="targetPoint" />
          </mxGeometry>
        </mxCell>
        <mxCell id="irj82ddTTEciqD4pm7NS-253" value="V&lt;span style=&quot;font-size: 15px;&quot;&gt;&lt;sub&gt;Load&lt;/sub&gt;&lt;/span&gt;" style="text;strokeColor=none;fillColor=none;html=1;fontSize=18;fontStyle=1;verticalAlign=middle;align=center;" vertex="1" parent="1">
          <mxGeometry x="506.5" y="95" width="63" height="40" as="geometry" />
        </mxCell>
        <mxCell id="irj82ddTTEciqD4pm7NS-254" value="" style="edgeStyle=segmentEdgeStyle;endArrow=oval;html=1;curved=0;rounded=0;endSize=8;startSize=8;strokeWidth=2;endFill=0;" edge="1" parent="1">
          <mxGeometry width="50" height="50" relative="1" as="geometry">
            <mxPoint x="433" y="80" as="sourcePoint" />
            <mxPoint x="433.5" y="60" as="targetPoint" />
          </mxGeometry>
        </mxCell>
        <mxCell id="irj82ddTTEciqD4pm7NS-255" value="V&lt;sub&gt;OC&lt;/sub&gt;" style="text;strokeColor=none;fillColor=none;html=1;fontSize=18;fontStyle=1;verticalAlign=middle;align=center;" vertex="1" parent="1">
          <mxGeometry x="405" y="20" width="63" height="40" as="geometry" />
        </mxCell>
        <mxCell id="irj82ddTTEciqD4pm7NS-256" value="" style="edgeStyle=segmentEdgeStyle;endArrow=oval;html=1;curved=0;rounded=0;endSize=8;startSize=8;strokeWidth=2;endFill=0;exitX=0.463;exitY=0.54;exitDx=0;exitDy=0;exitPerimeter=0;" edge="1" parent="1">
          <mxGeometry width="50" height="50" relative="1" as="geometry">
            <mxPoint x="500" y="120" as="sourcePoint" />
            <mxPoint x="510" y="120" as="targetPoint" />
          </mxGeometry>
        </mxCell>
        <mxCell id="irj82ddTTEciqD4pm7NS-258" value="" style="html=1;shape=mxgraph.electrical.electro-mechanical.switchDisconnector;aspect=fixed;elSwitchState=off;strokeWidth=2;rotation=0;" vertex="1" parent="1">
          <mxGeometry x="112.5" y="408.5" width="37.5" height="10" as="geometry" />
        </mxCell>
        <mxCell id="irj82ddTTEciqD4pm7NS-264" value="R&lt;sub&gt;Load&lt;/sub&gt;" style="text;strokeColor=none;fillColor=none;html=1;fontSize=18;fontStyle=1;verticalAlign=middle;align=center;rotation=0;" vertex="1" parent="1">
          <mxGeometry x="236.5" y="367.5" width="63" height="40" as="geometry" />
        </mxCell>
        <mxCell id="irj82ddTTEciqD4pm7NS-269" value="" style="group" vertex="1" connectable="0" parent="1">
          <mxGeometry x="478" y="419" width="26.5" height="25" as="geometry" />
        </mxCell>
        <mxCell id="irj82ddTTEciqD4pm7NS-262" value="" style="pointerEvents=1;verticalLabelPosition=bottom;shadow=0;dashed=0;align=center;html=1;verticalAlign=top;shape=mxgraph.electrical.signal_sources.protective_earth;strokeWidth=2;rotation=-90;" vertex="1" parent="irj82ddTTEciqD4pm7NS-269">
          <mxGeometry x="4" y="2.5" width="25" height="20" as="geometry" />
        </mxCell>
        <mxCell id="irj82ddTTEciqD4pm7NS-263" value="" style="line;strokeWidth=2;html=1;rotation=0;" vertex="1" parent="irj82ddTTEciqD4pm7NS-269">
          <mxGeometry y="7.5" width="11.75" height="10" as="geometry" />
        </mxCell>
        <mxCell id="irj82ddTTEciqD4pm7NS-257" value="" style="pointerEvents=1;verticalLabelPosition=bottom;shadow=0;dashed=0;align=center;html=1;verticalAlign=top;shape=mxgraph.electrical.resistors.resistor_2;rotation=-180;strokeWidth=2;" vertex="1" parent="1">
          <mxGeometry x="235" y="407" width="70" height="20" as="geometry" />
        </mxCell>
        <mxCell id="irj82ddTTEciqD4pm7NS-259" value="" style="line;strokeWidth=2;direction=south;html=1;rotation=-90;" vertex="1" parent="1">
          <mxGeometry x="384" y="328" width="10" height="178" as="geometry" />
        </mxCell>
        <mxCell id="irj82ddTTEciqD4pm7NS-260" value="" style="line;strokeWidth=2;direction=south;html=1;rotation=-90;" vertex="1" parent="1">
          <mxGeometry x="188" y="374" width="10" height="86" as="geometry" />
        </mxCell>
        <mxCell id="irj82ddTTEciqD4pm7NS-267" value="" style="edgeStyle=segmentEdgeStyle;endArrow=oval;html=1;curved=0;rounded=0;endSize=8;startSize=8;strokeWidth=2;endFill=0;exitX=0.463;exitY=0.54;exitDx=0;exitDy=0;exitPerimeter=0;" edge="1" parent="1" source="irj82ddTTEciqD4pm7NS-260">
          <mxGeometry width="50" height="50" relative="1" as="geometry">
            <mxPoint x="190" y="410" as="sourcePoint" />
            <mxPoint x="190" y="400" as="targetPoint" />
          </mxGeometry>
        </mxCell>
        <mxCell id="irj82ddTTEciqD4pm7NS-272" value="" style="line;strokeWidth=2;html=1;rotation=0;" vertex="1" parent="1">
          <mxGeometry x="64" y="412" width="50" height="10" as="geometry" />
        </mxCell>
        <mxCell id="irj82ddTTEciqD4pm7NS-274" value="" style="group;rotation=90;" vertex="1" connectable="0" parent="1">
          <mxGeometry x="60" y="356" width="59.5" height="63" as="geometry" />
        </mxCell>
        <mxCell id="irj82ddTTEciqD4pm7NS-265" value="" style="edgeStyle=segmentEdgeStyle;endArrow=oval;html=1;curved=0;rounded=0;endSize=8;startSize=8;strokeWidth=2;endFill=0;" edge="1" parent="irj82ddTTEciqD4pm7NS-274">
          <mxGeometry width="50" height="50" relative="1" as="geometry">
            <mxPoint x="27" y="61" as="sourcePoint" />
            <mxPoint x="27" y="41" as="targetPoint" />
          </mxGeometry>
        </mxCell>
        <mxCell id="irj82ddTTEciqD4pm7NS-266" value="V&lt;sub&gt;OC&lt;/sub&gt;" style="text;strokeColor=none;fillColor=none;html=1;fontSize=18;fontStyle=1;verticalAlign=middle;align=center;rotation=0;" vertex="1" parent="irj82ddTTEciqD4pm7NS-274">
          <mxGeometry x="-2" y="2" width="63" height="40" as="geometry" />
        </mxCell>
        <mxCell id="irj82ddTTEciqD4pm7NS-275" value="V&lt;span style=&quot;font-size: 15px;&quot;&gt;&lt;sub&gt;Load&lt;/sub&gt;&lt;/span&gt;" style="text;strokeColor=none;fillColor=none;html=1;fontSize=18;fontStyle=1;verticalAlign=middle;align=center;" vertex="1" parent="1">
          <mxGeometry x="158" y="356" width="63" height="40" as="geometry" />
        </mxCell>
      </root>
    </mxGraphModel>
  </diagram>
</mxfile>
